<svg viewBox="0 0 24 24" xmlns="http://www.w3.org/2000/svg" fill="none">
  <rect width="24" height="24" rx="5" fill="#0f172a"/>
  <path d="M12 6a6 6 0 00-1.9 11.7c.3.1.4-.1.4-.3v-1.1c-1.6.3-1.9-.7-1.9-.7-.3-.9-.7-1.1-.7-1.1-.6-.4.1-.4.1-.4.7.1 1.1.7 1.1.7.6 1 1.6.7 2 .5.1-.4.3-.7.5-.9-1.3-.1-2.6-.6-2.6-2.8 0-.6.2-1 .5-1.4-.1-.1-.2-.6.1-1.2 0 0 .4-.1 1.4.5.4-.1.9-.2 1.4-.2s1 .1 1.5.2c1-.6 1.4-.5 1.4-.5.3.6.2 1 .1 1.2.3.4.5.8.5 1.4 0 2.2-1.3 2.7-2.6 2.8.3.3.5.8.5 1.6v2.3c0 .2.1.4.4.3A6 6 0 0012 6z" fill="#fff"/>
</svg>
